<?xml version="1.0" encoding="utf-8"?><svg width="19" height="19" viewBox="0 0 19 19" xmlns="http://www.w3.org/2000/svg" xmlns:xlink="http://www.w3.org/1999/xlink"><view id="delete" viewBox="0 0 19 19"/><svg width="19" height="19" viewBox="0 0 19 19" xmlns="http://www.w3.org/2000/svg"><defs><style>.acls-1{fill-rule:evenodd}</style></defs><path id="aForma_1" data-name="Forma 1" class="acls-1" d="M883.5 332a9.5 9.5 0 1 0 9.5 9.5 9.511 9.511 0 0 0-9.5-9.5zm0 18.269a8.769 8.769 0 1 1 8.769-8.769 8.779 8.779 0 0 1-8.769 8.769zm3.547-12.316a.365.365 0 0 0-.517 0l-3.03 3.03-3.03-3.03a.366.366 0 0 0-.517.517l3.03 3.03-3.03 3.03a.366.366 0 0 0 .517.517l3.03-3.03 3.03 3.03a.366.366 0 0 0 .517-.517l-3.03-3.03 3.03-3.03a.365.365 0 0 0 0-.517z" transform="translate(-874 -332)"/></svg></svg>