<svg xmlns="http://www.w3.org/2000/svg" width="19" height="19" viewBox="0 0 19 19">
  <defs>
    <style>
      .cls-1 {
        fill-rule: evenodd;
      }
    </style>
  </defs>
  <path id="Forma_1" data-name="Forma 1" class="cls-1" d="M883.5,332a9.5,9.5,0,1,0,9.5,9.5A9.511,9.511,0,0,0,883.5,332Zm0,18.269a8.769,8.769,0,1,1,8.769-8.769A8.779,8.779,0,0,1,883.5,350.269Zm3.547-12.316a0.365,0.365,0,0,0-.517,0l-3.03,3.03-3.03-3.03a0.366,0.366,0,0,0-.517.517l3.03,3.03-3.03,3.03a0.366,0.366,0,0,0,.517.517l3.03-3.03,3.03,3.03a0.366,0.366,0,0,0,.517-0.517l-3.03-3.03,3.03-3.03A0.365,0.365,0,0,0,887.047,337.953Z" transform="translate(-874 -332)"/>
</svg>
